<svg class="Layer_1" data-name="Layer 1" width="1000" height="380" xmlns="http://www.w3.org/2000/svg" viewBox="0 0 100 38"><defs><style>.cls-1{fill:#fff;}.cls-2{fill:#5dd3b4;}</style></defs><title>logo</title><path class="cls-1" d="M49.71,15.55a2.73,2.73,0,0,1-.69,1,3.09,3.09,0,0,1-1.07.63,4.61,4.61,0,0,1-2.75,0,3.09,3.09,0,0,1-1.07-.63,2.85,2.85,0,0,1-.69-1,3.45,3.45,0,0,1-.24-1.32V8.58h.91v5.57a2.4,2.4,0,0,0,.64,1.78,3,3,0,0,0,3.69,0,2.4,2.4,0,0,0,.65-1.78V8.58H50v5.65a3.27,3.27,0,0,1-.25,1.32"></path><polygon class="cls-1" points="57.71 17.23 53.83 13.08 53.83 17.23 52.92 17.23 52.92 8.58 53.83 8.58 53.83 12.74 57.6 8.58 58.67 8.58 54.78 12.86 58.84 17.23 57.71 17.23"></polygon><polygon class="cls-1" points="44.11 21.6 44.11 24.72 47.85 24.72 47.85 25.5 44.11 25.5 44.11 29.46 43.2 29.46 43.2 20.82 48.4 20.82 48.4 21.6 44.11 21.6"></polygon><rect class="cls-1" x="50.87" y="20.82" width="0.91" height="8.64"></rect><path class="cls-1" d="M62.26,29.65,58,24.77c-.37-.42-.75-.85-1.12-1.29l-1-1.2h0c0,.41,0,.81,0,1.21v6H55V20.82h.64l4,4.59,1,1.15c.36.43.69.81,1,1.17l0,0c0-.38,0-.77,0-1.15V20.82h.89v8.83Z"></path><path class="cls-1" d="M71.41,29.46l-1-2.42H66.75l-1,2.42h-.89l3.58-8.82h.29l3.58,8.82Zm-2.34-5.83c-.08-.2-.16-.41-.23-.63s-.16-.46-.23-.69h0c-.07.23-.14.46-.23.69s-.16.43-.24.63l-1,2.65h3Z"></path><path class="cls-1" d="M82,29.65l-4.27-4.88c-.38-.42-.75-.85-1.12-1.29l-1-1.2h0c0,.41,0,.81,0,1.21v6h-.89V20.82h.64l4,4.59,1,1.15c.36.43.69.81,1,1.17l0,0c0-.38,0-.77,0-1.15V20.82h.89v8.83Z"></path><path class="cls-1" d="M91.8,22.05a3.87,3.87,0,0,0-1-.42,4.47,4.47,0,0,0-1.29-.18,4.19,4.19,0,0,0-1.41.25,3.65,3.65,0,0,0-1.21.74,3.77,3.77,0,0,0-.83,1.16,3.65,3.65,0,0,0-.31,1.54,3.73,3.73,0,0,0,.3,1.53,3.61,3.61,0,0,0,.83,1.16,3.68,3.68,0,0,0,1.2.73,4.06,4.06,0,0,0,1.43.25A4.54,4.54,0,0,0,92,28.23l-.22.92a3.54,3.54,0,0,1-.95.35,7.43,7.43,0,0,1-1.37.11,4.9,4.9,0,0,1-1.69-.3,4.49,4.49,0,0,1-1.47-.89,4.43,4.43,0,0,1-1-1.41,4.43,4.43,0,0,1,1-5.16A4.75,4.75,0,0,1,87.74,21a4.88,4.88,0,0,1,1.68-.3,5.94,5.94,0,0,1,1.48.16,4.2,4.2,0,0,1,1.08.42Z"></path><polygon class="cls-1" points="94.61 29.46 94.61 20.82 100 20.82 100 21.6 95.52 21.6 95.52 24.72 98.87 24.72 98.87 25.5 95.52 25.5 95.52 28.68 100 28.68 100 29.46 94.61 29.46"></polygon><path class="cls-2" d="M29.55,31.67l8.52-8.51-2.63-2.62v-12H31.73L23.2,0,20.58,2.62H8.52V6.34L0,14.84l2.63,2.62v12H6.35L14.87,38l2.62-2.62H29.55ZM23.84,29l4.81-4.8v9.61ZM9.42,4.15,14.23,9l-4.81,4.8V4.15Zm2.43,16.77,2.57-2.56V28l-4.81-4.8ZM26.3,17l-2.65,2.64V10l4.81,4.8Zm-3.55-4.6v3.79l-5.08-5.07L16,9.4h6.8ZM17,11.76h0l2.64,2.63H10.06l4.81-4.8Zm3.54,3.53,2.17,2.17v3.08l-2.17,2.17H17.49l-2.17-2.17V17.46l2.18-2.17ZM15.32,25.42V21.81l5.12,5.11,1.68,1.68h-6.8Zm5.76.87-2.69-2.68H28l-4.81,4.8Zm4.55-3.58H21.85l5.08-5.07,1.72-1.72v6.79Zm3.92-6.79,1.78,1.78,5,5h-6.8ZM24.29,9.4h9.62L29.1,14.21Zm-1.54-.89H16l1.77-1.76,5-5ZM12.43,15.29h3.8l-5,5-1.8,1.79V15.29ZM8.52,22.08,6.78,20.34,1.72,15.29h6.8Zm5.27,6.52H4.16L9,23.8Zm1.53.9h6.8L20.4,31.21l-5.08,5.07Zm14.23-2.84V23.61h6.8l-6.8,6.79ZM32,17.07h0l-2.24-2.23L34.55,10v9.6ZM26.82,8.51H23.65V1.72l6.81,6.79Zm-9.74-2.4L14.87,8.32l-4.81-4.8h9.62ZM8.52,11.38v3H1.72L8.52,7.6ZM6.15,21h0l2.19,2.18L3.53,28v-9.6Zm5.19,8.53h3.08v6.79L7.62,29.5ZM21,31.84h0l2.16-2.16L28,34.48H18.39Z"></path></svg>